<svg width="26" height="26" viewBox="0 0 26 26" fill="none" xmlns="http://www.w3.org/2000/svg">
<path d="M6.1752 3.25H19.8252C20.0838 3.25 20.3318 3.35272 20.5146 3.53557C20.6975 3.71842 20.8002 3.96641 20.8002 4.225V22.8894C20.8003 22.9766 20.777 23.0622 20.7328 23.1373C20.6886 23.2124 20.6251 23.2743 20.5488 23.3166C20.4725 23.3588 20.3863 23.3798 20.2992 23.3773C20.2121 23.3749 20.1272 23.3492 20.0533 23.3028L13.0002 18.8792L5.94705 23.3018C5.8733 23.3482 5.7885 23.3739 5.70144 23.3764C5.61439 23.3788 5.52827 23.3579 5.45203 23.3158C5.3758 23.2737 5.31223 23.212 5.26794 23.137C5.22365 23.062 5.20026 22.9765 5.2002 22.8894V4.225C5.2002 3.96641 5.30292 3.71842 5.48577 3.53557C5.66861 3.35272 5.91661 3.25 6.1752 3.25ZM18.8502 5.2H7.1502V20.2462L13.0002 16.5792L18.8502 20.2462V5.2Z" fill="#5BF5FF"/>
</svg>
