<svg width="32" height="28" viewBox="0 0 32 28" fill="none" xmlns="http://www.w3.org/2000/svg">
<path d="M9.70005 5H22.3C22.5387 5 22.7677 5.09482 22.9364 5.2636C23.1052 5.43239 23.2 5.66131 23.2 5.9V23.1287C23.2001 23.2092 23.1787 23.2882 23.1379 23.3575C23.097 23.4269 23.0384 23.484 22.968 23.523C22.8976 23.5619 22.818 23.5813 22.7376 23.5791C22.6571 23.5769 22.5788 23.5531 22.5106 23.5103L16 19.427L9.48945 23.5094C9.42138 23.5522 9.3431 23.5759 9.26274 23.5782C9.18238 23.5805 9.10289 23.5612 9.03251 23.5223C8.96214 23.4834 8.90346 23.4264 8.86258 23.3572C8.8217 23.288 8.80011 23.2091 8.80005 23.1287V5.9C8.80005 5.66131 8.89487 5.43239 9.06365 5.2636C9.23244 5.09482 9.46135 5 9.70005 5Z" fill="#5BF5FF"/>
</svg>
