<svg width="38" height="38" viewBox="0 0 38 38" fill="none" xmlns="http://www.w3.org/2000/svg">
<circle cx="22.2554" cy="19.2444" r="12.7444" fill="#917FFB"/>
<circle cx="22.2554" cy="19.2444" r="12.7444" fill="url(#paint0_linear_134_1061)"/>
<g filter="url(#filter0_b_134_1061)">
<ellipse cx="18.4666" cy="22.3444" rx="13.5481" ry="13.5481" fill="#BFB5FF" fill-opacity="0.6"/>
<path d="M31.9054 22.3444C31.9054 29.7665 25.8886 35.7832 18.4666 35.7832C11.0446 35.7832 5.02783 29.7665 5.02783 22.3444C5.02783 14.9224 11.0446 8.90567 18.4666 8.90567C25.8886 8.90567 31.9054 14.9224 31.9054 22.3444Z" stroke="url(#paint1_linear_134_1061)" stroke-width="0.21875"/>
</g>
<path d="M25.9886 15.5607L28.2942 16.0304C28.418 16.0556 28.5198 16.1481 28.5556 16.2729C28.5736 16.3335 28.5752 16.398 28.5602 16.4595C28.5452 16.5209 28.5141 16.5771 28.4703 16.622L26.5815 18.5482C26.3552 18.7776 26.0491 18.9066 25.7299 18.9071H24.1631L20.2286 22.918C20.3037 23.2068 20.3175 23.5086 20.2691 23.8033C20.2208 24.098 20.1113 24.3788 19.9481 24.627C19.7849 24.8752 19.5716 25.0851 19.3226 25.2428C19.0735 25.4004 18.7943 25.5021 18.5037 25.5412C18.213 25.5803 17.9175 25.5558 17.6368 25.4693C17.3562 25.3829 17.0968 25.2365 16.8761 25.0398C16.6553 24.8432 16.4782 24.6009 16.3565 24.3291C16.2348 24.0573 16.1714 23.7621 16.1704 23.4634C16.1703 23.1407 16.2431 22.8223 16.3832 22.5329C16.5232 22.2435 16.7268 21.9908 16.978 21.7944C17.2292 21.598 17.5215 21.4631 17.832 21.4003C18.1426 21.3374 18.4632 21.3483 18.7691 21.432L22.7048 17.4197V15.8257C22.7048 15.5005 22.8314 15.1878 23.057 14.9579L24.9472 13.0317C24.9912 12.987 25.0464 12.9553 25.1067 12.94C25.167 12.9247 25.2302 12.9263 25.2897 12.9448C25.4122 12.9812 25.503 13.0849 25.5277 13.2111L25.9886 15.5607Z" fill="url(#paint2_linear_134_1061)" fill-opacity="0.9"/>
<path d="M9.75969 23.3823C9.76112 24.5779 10.0189 25.7593 10.5157 26.8467C11.0125 27.9342 11.7367 28.9025 12.6395 29.6863C13.5423 30.4701 14.6026 31.0511 15.749 31.3902C16.8954 31.7293 18.1012 31.8185 19.285 31.6519C20.4689 31.4853 21.6032 31.0668 22.6115 30.4245C23.6199 29.7822 24.4787 28.9311 25.1302 27.9286C25.7817 26.9261 26.2106 25.7955 26.388 24.6132C26.5654 23.4308 26.4872 22.2241 26.1587 21.0746C26.1126 20.9403 26.0943 20.798 26.1049 20.6564C26.1155 20.5147 26.1548 20.3768 26.2205 20.2509C26.2861 20.1249 26.3767 20.0137 26.4867 19.9239C26.5967 19.8341 26.7238 19.7676 26.8603 19.7285C26.9968 19.6894 27.1398 19.6785 27.2807 19.6964C27.4215 19.7144 27.5573 19.7608 27.6796 19.8329C27.8019 19.905 27.9083 20.0012 27.9923 20.1157C28.0763 20.2303 28.1361 20.3607 28.168 20.499C28.8041 22.7252 28.6833 25.0997 27.8245 27.2498C26.9656 29.3999 25.4174 31.2041 23.4226 32.3792C21.4279 33.5544 19.0995 34.0341 16.8027 33.743C14.506 33.4519 12.3709 32.4065 10.7323 30.7708C9.09551 29.1325 8.0491 26.997 7.75736 24.6995C7.46562 22.402 7.94507 20.0726 9.12042 18.0772C10.2958 16.0817 12.1005 14.5331 14.2512 13.6745C16.4019 12.8159 18.7768 12.6959 21.0031 13.3334C21.2682 13.4109 21.4918 13.5902 21.6251 13.8321C21.7584 14.074 21.7906 14.3589 21.7145 14.6244C21.6385 14.8899 21.4605 15.1145 21.2193 15.2492C20.9782 15.3838 20.6935 15.4175 20.4276 15.3429C19.1827 14.9854 17.8718 14.9221 16.5982 15.1579C15.3246 15.3937 14.1232 15.9222 13.0888 16.7017C12.0544 17.4813 11.2152 18.4905 10.6375 19.6498C10.0597 20.8092 9.75924 22.0869 9.75969 23.3823Z" fill="url(#paint3_linear_134_1061)" fill-opacity="0.9"/>
<path d="M13.9132 23.3774C13.9133 24.1444 14.1228 24.8969 14.5191 25.5536C14.9154 26.2103 15.4835 26.7463 16.1621 27.1039C16.8407 27.4615 17.604 27.627 18.3698 27.5826C19.1355 27.5382 19.8746 27.2855 20.5073 26.852C21.1399 26.4173 21.6416 25.8179 21.9582 25.1187C22.2748 24.4195 22.3942 23.647 22.3035 22.8848C22.279 22.6999 22.3042 22.5117 22.3765 22.3398C22.4489 22.1678 22.5658 22.0182 22.7152 21.9065C22.8645 21.7947 23.041 21.7247 23.2264 21.7038C23.4118 21.6829 23.5994 21.7118 23.7699 21.7875C23.9404 21.8622 24.088 21.9808 24.1978 22.1312C24.3075 22.2815 24.3753 22.4583 24.3944 22.6435C24.5469 23.9459 24.2901 25.2634 23.6598 26.4133C23.0295 27.5631 22.0568 28.4882 20.8768 29.0602C19.6969 29.6322 18.3681 29.8226 17.075 29.6051C15.7818 29.3876 14.5885 28.7729 13.6606 27.8464C12.7327 26.9199 12.1162 25.7275 11.8967 24.4347C11.6772 23.1419 11.8657 21.8128 12.4358 20.632C13.006 19.4512 13.9296 18.4771 15.0785 17.845C16.2274 17.2129 17.5446 16.9542 18.8472 17.1047C18.9867 17.1176 19.1222 17.1583 19.2457 17.2243C19.3693 17.2903 19.4784 17.3802 19.5668 17.489C19.6551 17.5977 19.7209 17.7229 19.7602 17.8574C19.7995 17.9918 19.8115 18.1328 19.7956 18.272C19.7798 18.4111 19.7363 18.5457 19.6677 18.6679C19.5991 18.79 19.5068 18.8973 19.3963 18.9833C19.2857 19.0693 19.1591 19.1324 19.0239 19.1689C18.8886 19.2053 18.7474 19.2144 18.6086 19.1956C18.0188 19.1271 17.4211 19.1842 16.8549 19.3631C16.2886 19.542 15.7666 19.8386 15.3232 20.2336C14.8797 20.6285 14.5248 21.1128 14.2818 21.6546C14.0388 22.1965 13.9132 22.7836 13.9132 23.3774Z" fill="url(#paint4_linear_134_1061)" fill-opacity="0.9"/>
<defs>
<filter id="filter0_b_134_1061" x="2.0623" y="5.94013" width="32.8085" height="32.8086" filterUnits="userSpaceOnUse" color-interpolation-filters="sRGB">
<feFlood flood-opacity="0" result="BackgroundImageFix"/>
<feGaussianBlur in="BackgroundImageFix" stdDeviation="1.42808"/>
<feComposite in2="SourceAlpha" operator="in" result="effect1_backgroundBlur_134_1061"/>
<feBlend mode="normal" in="SourceGraphic" in2="effect1_backgroundBlur_134_1061" result="shape"/>
</filter>
<linearGradient id="paint0_linear_134_1061" x1="16.8635" y1="12.0757" x2="36.4209" y2="18.8013" gradientUnits="userSpaceOnUse">
<stop stop-color="#917FFB"/>
<stop offset="1" stop-color="#3F2DAF"/>
</linearGradient>
<linearGradient id="paint1_linear_134_1061" x1="2.98301" y1="11.2596" x2="41.2722" y2="31.0293" gradientUnits="userSpaceOnUse">
<stop stop-color="white"/>
<stop offset="1" stop-color="white" stop-opacity="0"/>
</linearGradient>
<linearGradient id="paint2_linear_134_1061" x1="18.5641" y1="19.2695" x2="30.6947" y2="20.8885" gradientUnits="userSpaceOnUse">
<stop stop-color="white"/>
<stop offset="1" stop-color="white" stop-opacity="0"/>
</linearGradient>
<linearGradient id="paint3_linear_134_1061" x1="11.7079" y1="23.4192" x2="32.1368" y2="26.1962" gradientUnits="userSpaceOnUse">
<stop stop-color="white"/>
<stop offset="1" stop-color="white" stop-opacity="0"/>
</linearGradient>
<linearGradient id="paint4_linear_134_1061" x1="14.2456" y1="23.4028" x2="26.5928" y2="25.0812" gradientUnits="userSpaceOnUse">
<stop stop-color="white"/>
<stop offset="1" stop-color="white" stop-opacity="0"/>
</linearGradient>
</defs>
</svg>
