<svg width="36" height="37" viewBox="0 0 36 37" fill="none" xmlns="http://www.w3.org/2000/svg">
<circle cx="23.3984" cy="14.2968" r="11" fill="url(#paint0_linear_108_497)"/>
<g filter="url(#filter0_b_108_497)">
<mask id="path-2-inside-1_108_497" fill="white">
<path fill-rule="evenodd" clip-rule="evenodd" d="M27.643 9.10944C27.6428 9.10781 27.6428 9.10615 27.643 9.10452C27.5969 8.90215 27.4951 8.7167 27.3491 8.5691C27.2032 8.42151 27.0189 8.31764 26.817 8.26921C25.1901 7.8723 22.6306 8.29542 19.7944 9.431C16.9358 10.5775 14.2573 12.27 12.4469 14.0836C11.8667 14.6609 11.3276 15.278 10.8336 15.9306C9.61453 15.876 8.54063 16.0496 7.63599 16.4443C4.48365 17.8316 3.58337 21.3819 3.34369 22.8396C3.30901 23.0468 3.32259 23.2591 3.38337 23.4601C3.44416 23.6611 3.55051 23.8454 3.69414 23.9986C3.83778 24.1518 4.01483 24.2698 4.21152 24.3434C4.4082 24.417 4.61922 24.4442 4.82814 24.4229H4.83524L8.34682 24.0397C8.3493 24.0651 8.35196 24.0893 8.3545 24.1124L8.35992 24.163C8.40502 24.5909 8.59585 24.9903 8.90042 25.2943L10.6142 27.0091C10.9176 27.3141 11.317 27.5052 11.7448 27.5501L11.8622 27.5627L11.4801 31.0699V31.077C11.4605 31.2659 11.4806 31.4568 11.5391 31.6375C11.5975 31.8181 11.693 31.9846 11.8195 32.1263C11.9459 32.268 12.1006 32.3817 12.2735 32.4602C12.4464 32.5387 12.6338 32.5802 12.8236 32.5822C12.8996 32.5823 12.9753 32.5761 13.0502 32.5636C14.5161 32.3278 18.0648 31.4384 19.4483 28.2692C19.8397 27.3705 20.0128 26.301 19.9642 25.0841C20.6197 24.5912 21.2391 24.052 21.8177 23.4708C23.6428 21.6549 25.3407 18.9983 26.4752 16.1812C27.6048 13.3772 28.0301 10.7986 27.643 9.10944ZM20.5614 13.1031C19.0646 13.1031 17.8512 14.3165 17.8512 15.8133C17.8512 17.3101 19.0646 18.5235 20.5614 18.5235C22.0582 18.5235 23.2716 17.3101 23.2716 15.8133C23.2716 14.3165 22.0582 13.1031 20.5614 13.1031Z"/>
</mask>
<path fill-rule="evenodd" clip-rule="evenodd" d="M27.643 9.10944C27.6428 9.10781 27.6428 9.10615 27.643 9.10452C27.5969 8.90215 27.4951 8.7167 27.3491 8.5691C27.2032 8.42151 27.0189 8.31764 26.817 8.26921C25.1901 7.8723 22.6306 8.29542 19.7944 9.431C16.9358 10.5775 14.2573 12.27 12.4469 14.0836C11.8667 14.6609 11.3276 15.278 10.8336 15.9306C9.61453 15.876 8.54063 16.0496 7.63599 16.4443C4.48365 17.8316 3.58337 21.3819 3.34369 22.8396C3.30901 23.0468 3.32259 23.2591 3.38337 23.4601C3.44416 23.6611 3.55051 23.8454 3.69414 23.9986C3.83778 24.1518 4.01483 24.2698 4.21152 24.3434C4.4082 24.417 4.61922 24.4442 4.82814 24.4229H4.83524L8.34682 24.0397C8.3493 24.0651 8.35196 24.0893 8.3545 24.1124L8.35992 24.163C8.40502 24.5909 8.59585 24.9903 8.90042 25.2943L10.6142 27.0091C10.9176 27.3141 11.317 27.5052 11.7448 27.5501L11.8622 27.5627L11.4801 31.0699V31.077C11.4605 31.2659 11.4806 31.4568 11.5391 31.6375C11.5975 31.8181 11.693 31.9846 11.8195 32.1263C11.9459 32.268 12.1006 32.3817 12.2735 32.4602C12.4464 32.5387 12.6338 32.5802 12.8236 32.5822C12.8996 32.5823 12.9753 32.5761 13.0502 32.5636C14.5161 32.3278 18.0648 31.4384 19.4483 28.2692C19.8397 27.3705 20.0128 26.301 19.9642 25.0841C20.6197 24.5912 21.2391 24.052 21.8177 23.4708C23.6428 21.6549 25.3407 18.9983 26.4752 16.1812C27.6048 13.3772 28.0301 10.7986 27.643 9.10944ZM20.5614 13.1031C19.0646 13.1031 17.8512 14.3165 17.8512 15.8133C17.8512 17.3101 19.0646 18.5235 20.5614 18.5235C22.0582 18.5235 23.2716 17.3101 23.2716 15.8133C23.2716 14.3165 22.0582 13.1031 20.5614 13.1031Z" fill="#F8B77B" fill-opacity="0.6"/>
<path d="M27.643 9.10452L27.9397 9.14934L27.9482 9.09318L27.9355 9.0378L27.643 9.10452ZM27.643 9.10944L27.3464 9.15425L27.3481 9.16543L27.3506 9.17644L27.643 9.10944ZM27.3491 8.5691L27.1358 8.78005L27.3491 8.5691ZM26.817 8.26921L26.7459 8.56067L26.747 8.56093L26.817 8.26921ZM19.7944 9.431L19.6829 9.1525L19.6827 9.15256L19.7944 9.431ZM12.4469 14.0836L12.6585 14.2963L12.6593 14.2956L12.4469 14.0836ZM10.8336 15.9306L10.8202 16.2303L10.9777 16.2373L11.0728 16.1117L10.8336 15.9306ZM7.63599 16.4443L7.51601 16.1694L7.51515 16.1697L7.63599 16.4443ZM3.34369 22.8396L3.63957 22.8892L3.63972 22.8883L3.34369 22.8396ZM3.38337 23.4601L3.67053 23.3733L3.67053 23.3733L3.38337 23.4601ZM3.69414 23.9986L3.913 23.7934L3.913 23.7934L3.69414 23.9986ZM4.21152 24.3434L4.31665 24.0624H4.31665L4.21152 24.3434ZM4.82814 24.4229V24.1229H4.8129L4.79774 24.1245L4.82814 24.4229ZM4.83524 24.4229V24.7229H4.85156L4.86779 24.7211L4.83524 24.4229ZM8.34682 24.0397L8.6454 24.0105L8.61594 23.7085L8.31427 23.7414L8.34682 24.0397ZM8.3545 24.1124L8.65279 24.0805L8.65271 24.0797L8.3545 24.1124ZM8.35992 24.163L8.65827 24.1316L8.65822 24.1311L8.35992 24.163ZM8.90042 25.2943L9.11262 25.0822L9.11233 25.0819L8.90042 25.2943ZM10.6142 27.0091L10.8268 26.7975L10.8264 26.797L10.6142 27.0091ZM11.7448 27.5501L11.7767 27.2518L11.7762 27.2518L11.7448 27.5501ZM11.8622 27.5627L12.1605 27.5952L12.193 27.2964L11.8941 27.2644L11.8622 27.5627ZM11.4801 31.0699L11.1818 31.0374L11.1801 31.0536V31.0699H11.4801ZM11.4801 31.077L11.7785 31.1079L11.7801 31.0925V31.077H11.4801ZM12.2735 32.4602L12.3975 32.187L12.3975 32.187L12.2735 32.4602ZM12.8236 32.5822L12.8206 32.8822L12.8232 32.8822L12.8236 32.5822ZM13.0502 32.5636L13.0026 32.2674L13.0009 32.2677L13.0502 32.5636ZM19.4483 28.2692L19.7232 28.3892L19.7233 28.389L19.4483 28.2692ZM19.9642 25.0841L19.7839 24.8443L19.6581 24.9388L19.6644 25.096L19.9642 25.0841ZM21.8177 23.4708L21.6061 23.2581L21.6051 23.2591L21.8177 23.4708ZM26.4752 16.1812L26.197 16.0691L26.197 16.0691L26.4752 16.1812ZM27.3464 9.05971C27.3417 9.09104 27.3417 9.12291 27.3464 9.15425L27.9397 9.06462C27.9439 9.0927 27.9439 9.12126 27.9397 9.14934L27.3464 9.05971ZM27.1358 8.78005C27.2424 8.88789 27.3168 9.02338 27.3505 9.17124L27.9355 9.0378C27.8769 8.78091 27.7477 8.54551 27.5624 8.35816L27.1358 8.78005ZM26.747 8.56093C26.8945 8.59632 27.0292 8.67221 27.1358 8.78005L27.5624 8.35816C27.3772 8.17081 27.1432 8.03896 26.887 7.97749L26.747 8.56093ZM19.9059 9.70951C22.7256 8.58053 25.2121 8.18648 26.7459 8.56066L26.8881 7.97776C25.168 7.55812 22.5356 8.01031 19.6829 9.1525L19.9059 9.70951ZM12.6593 14.2956C14.4356 12.5161 17.0774 10.844 19.9061 9.70944L19.6827 9.15256C16.7942 10.3111 14.0791 12.0239 12.2346 13.8717L12.6593 14.2956ZM11.0728 16.1117C11.5584 15.4703 12.0882 14.8637 12.6585 14.2963L12.2354 13.8709C11.6452 14.4581 11.0969 15.0858 10.5944 15.7495L11.0728 16.1117ZM7.75596 16.7193C8.61012 16.3466 9.63662 16.1773 10.8202 16.2303L10.8471 15.6309C9.59243 15.5747 8.47115 15.7526 7.51601 16.1694L7.75596 16.7193ZM3.63972 22.8883C3.75665 22.1771 4.03453 20.9592 4.66353 19.7544C5.29181 18.551 6.26141 17.377 7.75683 16.7189L7.51515 16.1697C5.85822 16.8989 4.80152 18.1937 4.13165 19.4767C3.46251 20.7584 3.17041 22.0444 3.04767 22.791L3.63972 22.8883ZM3.67053 23.3733C3.62311 23.2164 3.61251 23.0508 3.63957 22.8892L3.04781 22.7901C3.00551 23.0427 3.02207 23.3017 3.09622 23.5469L3.67053 23.3733ZM3.913 23.7934C3.80093 23.6739 3.71796 23.5301 3.67053 23.3733L3.09622 23.5469C3.17036 23.7921 3.30008 24.0169 3.47529 24.2038L3.913 23.7934ZM4.31665 24.0624C4.1632 24.005 4.02506 23.9129 3.913 23.7934L3.47529 24.2038C3.6505 24.3907 3.86647 24.5346 4.10639 24.6244L4.31665 24.0624ZM4.79774 24.1245C4.63474 24.1411 4.47011 24.1198 4.31665 24.0624L4.10639 24.6244C4.3463 24.7141 4.6037 24.7473 4.85854 24.7214L4.79774 24.1245ZM4.83524 24.1229H4.82814V24.7229H4.83524V24.1229ZM8.31427 23.7414L4.80269 24.1247L4.86779 24.7211L8.37937 24.3379L8.31427 23.7414ZM8.65271 24.0797C8.65015 24.0564 8.64768 24.0339 8.6454 24.0105L8.04824 24.0688C8.05092 24.0963 8.05378 24.1223 8.05629 24.1452L8.65271 24.0797ZM8.65822 24.1311L8.65279 24.0805L8.05621 24.1444L8.06163 24.195L8.65822 24.1311ZM9.11233 25.0819C8.85647 24.8266 8.69616 24.4911 8.65827 24.1316L8.06157 24.1945C8.11389 24.6908 8.33524 25.1541 8.68851 25.5066L9.11233 25.0819ZM10.8264 26.797L9.11262 25.0822L8.68822 25.5063L10.402 27.2212L10.8264 26.797ZM11.7762 27.2518C11.4169 27.214 11.0816 27.0536 10.8268 26.7975L10.4015 27.2207C10.7536 27.5746 11.217 27.7963 11.7135 27.8485L11.7762 27.2518ZM11.8941 27.2644L11.7767 27.2518L11.7129 27.8484L11.8303 27.861L11.8941 27.2644ZM11.7783 31.1024L12.1605 27.5952L11.564 27.5302L11.1818 31.0374L11.7783 31.1024ZM11.7801 31.077V31.0699H11.1801V31.077H11.7801ZM11.8245 31.5451C11.7789 31.4042 11.7632 31.2552 11.7785 31.1079L11.1816 31.0461C11.1578 31.2766 11.1823 31.5094 11.2536 31.7298L11.8245 31.5451ZM12.0433 31.9265C11.9446 31.816 11.8701 31.6861 11.8245 31.5451L11.2536 31.7298C11.3249 31.9502 11.4414 32.1533 11.5957 32.3261L12.0433 31.9265ZM12.3975 32.187C12.2626 32.1258 12.1419 32.0371 12.0433 31.9265L11.5957 32.3261C11.7499 32.4989 11.9385 32.6376 12.1494 32.7334L12.3975 32.187ZM12.8267 32.2822C12.6786 32.2807 12.5324 32.2483 12.3975 32.187L12.1494 32.7333C12.3604 32.8291 12.5889 32.8798 12.8206 32.8822L12.8267 32.2822ZM13.0009 32.2677C12.9425 32.2775 12.8834 32.2823 12.8241 32.2822L12.8232 32.8822C12.9158 32.8824 13.0082 32.8748 13.0995 32.8596L13.0009 32.2677ZM19.1733 28.1491C18.517 29.6527 17.3444 30.6235 16.1415 31.2504C14.937 31.8781 13.7178 32.1524 13.0026 32.2674L13.0979 32.8598C13.8485 32.7391 15.1366 32.4507 16.4188 31.7825C17.7026 31.1134 18.9961 30.0548 19.7232 28.3892L19.1733 28.1491ZM19.6644 25.096C19.7116 26.2785 19.5427 27.3011 19.1732 28.1494L19.7233 28.389C20.1367 27.44 20.3139 26.3235 20.2639 25.0721L19.6644 25.096ZM21.6051 23.2591C21.0366 23.8303 20.428 24.36 19.7839 24.8443L20.1445 25.3238C20.8114 24.8224 21.4417 24.2738 22.0303 23.6824L21.6051 23.2591ZM26.197 16.0691C25.075 18.8552 23.3978 21.4756 21.6061 23.2581L22.0293 23.6834C23.8879 21.8343 25.6065 19.1415 26.7535 16.2933L26.197 16.0691ZM27.3506 9.17644C27.7171 10.776 27.3187 13.2845 26.197 16.0691L26.7535 16.2933C27.8909 13.4698 28.3431 10.8213 27.9355 9.04243L27.3506 9.17644ZM18.1512 15.8133C18.1512 14.4821 19.2302 13.4031 20.5614 13.4031V12.8031C18.8989 12.8031 17.5512 14.1508 17.5512 15.8133H18.1512ZM20.5614 18.2235C19.2302 18.2235 18.1512 17.1444 18.1512 15.8133H17.5512C17.5512 17.4757 18.8989 18.8235 20.5614 18.8235V18.2235ZM22.9716 15.8133C22.9716 17.1444 21.8925 18.2235 20.5614 18.2235V18.8235C22.2238 18.8235 23.5716 17.4757 23.5716 15.8133H22.9716ZM20.5614 13.4031C21.8925 13.4031 22.9716 14.4821 22.9716 15.8133H23.5716C23.5716 14.1508 22.2238 12.8031 20.5614 12.8031V13.4031Z" fill="url(#paint1_linear_108_497)" mask="url(#path-2-inside-1_108_497)"/>
</g>
<g filter="url(#filter1_b_108_497)">
<path d="M11.3448 22.677C11.1485 22.8688 10.8339 22.8653 10.6421 22.669C10.4502 22.4728 10.4538 22.1582 10.65 21.9663L14.5774 18.1267C14.7736 17.9348 15.0883 17.9384 15.2801 18.1346C15.472 18.3309 15.4684 18.6455 15.2722 18.8373L11.3448 22.677Z" fill="url(#paint2_linear_108_497)" fill-opacity="0.9"/>
<path d="M11.3019 22.6331C11.1299 22.8013 10.8541 22.7982 10.6859 22.6261C10.5178 22.4541 10.5209 22.1783 10.6929 22.0102L14.6203 18.1705C14.7923 18.0024 15.0681 18.0055 15.2363 18.1775C15.4044 18.3495 15.4013 18.6253 15.2293 18.7935L11.3019 22.6331Z" stroke="url(#paint3_linear_108_497)" stroke-width="0.122656"/>
</g>
<g filter="url(#filter2_b_108_497)">
<path d="M13.9307 25.2631C13.7345 25.4549 13.4199 25.4514 13.228 25.2551C13.0362 25.0589 13.0397 24.7443 13.236 24.5524L17.1633 20.7128C17.3596 20.5209 17.6742 20.5245 17.866 20.7207C18.0579 20.917 18.0543 21.2316 17.8581 21.4235L13.9307 25.2631Z" fill="url(#paint4_linear_108_497)" fill-opacity="0.9"/>
<path d="M13.8878 25.2192C13.7158 25.3874 13.44 25.3843 13.2719 25.2123C13.1037 25.0402 13.1068 24.7645 13.2788 24.5963L17.2062 20.7567C17.3782 20.5885 17.654 20.5916 17.8222 20.7636C17.9904 20.9356 17.9873 21.2114 17.8152 21.3796L13.8878 25.2192Z" stroke="url(#paint5_linear_108_497)" stroke-width="0.122656"/>
</g>
<g filter="url(#filter3_b_108_497)">
<path d="M11.3448 25.2631C11.1485 25.4549 10.8339 25.4514 10.6421 25.2551C10.4502 25.0589 10.4538 24.7443 10.65 24.5524L14.5774 20.7128C14.7736 20.5209 15.0883 20.5245 15.2801 20.7207C15.472 20.917 15.4684 21.2316 15.2722 21.4235L11.3448 25.2631Z" fill="url(#paint6_linear_108_497)" fill-opacity="0.9"/>
<path d="M11.3019 25.2192C11.1299 25.3874 10.8541 25.3843 10.6859 25.2123C10.5178 25.0402 10.5209 24.7645 10.6929 24.5963L14.6203 20.7567C14.7923 20.5885 15.0681 20.5916 15.2363 20.7636C15.4044 20.9356 15.4013 21.2114 15.2293 21.3796L11.3019 25.2192Z" stroke="url(#paint7_linear_108_497)" stroke-width="0.122656"/>
</g>
<defs>
<filter id="filter0_b_108_497" x="-9.73181" y="-4.93319" width="50.5715" height="50.5722" filterUnits="userSpaceOnUse" color-interpolation-filters="sRGB">
<feFlood flood-opacity="0" result="BackgroundImageFix"/>
<feGaussianBlur in="BackgroundImageFix" stdDeviation="6.52838"/>
<feComposite in2="SourceAlpha" operator="in" result="effect1_backgroundBlur_108_497"/>
<feBlend mode="normal" in="SourceGraphic" in2="effect1_backgroundBlur_108_497" result="shape"/>
</filter>
<filter id="filter1_b_108_497" x="7.16664" y="14.6512" width="11.5888" height="11.5012" filterUnits="userSpaceOnUse" color-interpolation-filters="sRGB">
<feFlood flood-opacity="0" result="BackgroundImageFix"/>
<feGaussianBlur in="BackgroundImageFix" stdDeviation="1.66692"/>
<feComposite in2="SourceAlpha" operator="in" result="effect1_backgroundBlur_108_497"/>
<feBlend mode="normal" in="SourceGraphic" in2="effect1_backgroundBlur_108_497" result="shape"/>
</filter>
<filter id="filter2_b_108_497" x="9.75258" y="17.2374" width="11.5888" height="11.5012" filterUnits="userSpaceOnUse" color-interpolation-filters="sRGB">
<feFlood flood-opacity="0" result="BackgroundImageFix"/>
<feGaussianBlur in="BackgroundImageFix" stdDeviation="1.66692"/>
<feComposite in2="SourceAlpha" operator="in" result="effect1_backgroundBlur_108_497"/>
<feBlend mode="normal" in="SourceGraphic" in2="effect1_backgroundBlur_108_497" result="shape"/>
</filter>
<filter id="filter3_b_108_497" x="7.16664" y="17.2374" width="11.5888" height="11.5012" filterUnits="userSpaceOnUse" color-interpolation-filters="sRGB">
<feFlood flood-opacity="0" result="BackgroundImageFix"/>
<feGaussianBlur in="BackgroundImageFix" stdDeviation="1.66692"/>
<feComposite in2="SourceAlpha" operator="in" result="effect1_backgroundBlur_108_497"/>
<feBlend mode="normal" in="SourceGraphic" in2="effect1_backgroundBlur_108_497" result="shape"/>
</filter>
<linearGradient id="paint0_linear_108_497" x1="16.8984" y1="0.796814" x2="34.8951" y2="20.5594" gradientUnits="userSpaceOnUse">
<stop stop-color="#FBA47F"/>
<stop offset="1" stop-color="#DF6B00"/>
</linearGradient>
<linearGradient id="paint1_linear_108_497" x1="1.57796" y1="10.3471" x2="36.1393" y2="28.1915" gradientUnits="userSpaceOnUse">
<stop stop-color="white"/>
<stop offset="1" stop-color="white" stop-opacity="0"/>
</linearGradient>
<linearGradient id="paint2_linear_108_497" x1="9.92119" y1="24.3198" x2="15.3397" y2="21.1213" gradientUnits="userSpaceOnUse">
<stop stop-color="white" stop-opacity="0"/>
<stop offset="0.979167" stop-color="white"/>
</linearGradient>
<linearGradient id="paint3_linear_108_497" x1="11.3368" y1="24.6727" x2="15.9749" y2="20.1383" gradientUnits="userSpaceOnUse">
<stop stop-color="white" stop-opacity="0"/>
<stop offset="1" stop-color="white"/>
</linearGradient>
<linearGradient id="paint4_linear_108_497" x1="12.5071" y1="26.906" x2="17.9257" y2="23.7074" gradientUnits="userSpaceOnUse">
<stop stop-color="white" stop-opacity="0"/>
<stop offset="0.979167" stop-color="white"/>
</linearGradient>
<linearGradient id="paint5_linear_108_497" x1="13.9228" y1="27.2588" x2="18.5608" y2="22.7244" gradientUnits="userSpaceOnUse">
<stop stop-color="white" stop-opacity="0"/>
<stop offset="1" stop-color="white"/>
</linearGradient>
<linearGradient id="paint6_linear_108_497" x1="9.92119" y1="26.906" x2="15.3397" y2="23.7074" gradientUnits="userSpaceOnUse">
<stop stop-color="white" stop-opacity="0"/>
<stop offset="0.979167" stop-color="white"/>
</linearGradient>
<linearGradient id="paint7_linear_108_497" x1="11.3368" y1="27.2588" x2="15.9749" y2="22.7244" gradientUnits="userSpaceOnUse">
<stop stop-color="white" stop-opacity="0"/>
<stop offset="1" stop-color="white"/>
</linearGradient>
</defs>
</svg>
