<svg width="26" height="26" viewBox="0 0 26 26" fill="none" xmlns="http://www.w3.org/2000/svg">
<path d="M13.4037 6.17501H21.775C22.0336 6.17501 22.2816 6.27773 22.4644 6.46058C22.6473 6.64343 22.75 6.89142 22.75 7.15001V20.8C22.75 21.0586 22.6473 21.3066 22.4644 21.4894C22.2816 21.6723 22.0336 21.775 21.775 21.775H4.225C3.96641 21.775 3.71842 21.6723 3.53557 21.4894C3.35272 21.3066 3.25 21.0586 3.25 20.8V5.20001C3.25 4.94142 3.35272 4.69342 3.53557 4.51058C3.71842 4.32773 3.96641 4.22501 4.225 4.22501H11.4536L13.4037 6.17501ZM20.8 12.025H5.2V19.825H20.8V12.025ZM20.8 10.075V8.12501H12.5964L10.6464 6.17501H5.2V10.075H20.8Z" fill="#5BF5FF"/>
</svg>
