<svg width="26" height="26" viewBox="0 0 26 26" fill="none" xmlns="http://www.w3.org/2000/svg">
<path d="M8.0665 6.175C8.06625 6.69218 7.86055 7.18806 7.49467 7.55358C7.12879 7.91909 6.6327 8.12429 6.11553 8.12403C5.59836 8.12377 5.10247 7.91808 4.73696 7.5522C4.37144 7.18632 4.16625 6.69023 4.1665 6.17306C4.16676 5.65588 4.37246 5.16 4.73834 4.79448C5.10421 4.42897 5.60031 4.22377 6.11748 4.22403C6.63465 4.22429 7.13054 4.42998 7.49605 4.79586C7.86157 5.16174 8.06676 5.65783 8.0665 6.175ZM8.125 9.56801H4.225V21.775H8.125V9.56801ZM14.287 9.56801H10.4065V21.775H14.248V15.3693C14.248 11.8008 18.8988 11.4693 18.8988 15.3693V21.775H22.75V14.0433C22.75 8.0275 15.8665 8.25176 14.248 11.206L14.287 9.56801Z" fill="#65C7F7"/>
</svg>
