<svg width="166" height="161" viewBox="0 0 166 161" fill="none" xmlns="http://www.w3.org/2000/svg">
<path d="M81.5066 160.714C122.658 160.714 156.017 127.354 156.017 86.2034C156.017 45.0524 122.658 11.6929 81.5066 11.6929C40.3556 11.6929 6.99609 45.0524 6.99609 86.2034C6.99609 127.354 40.3556 160.714 81.5066 160.714Z" fill="url(#paint0_linear_278_1443)"/>
<path d="M118.453 21.437H43.4255C40.6338 21.437 37.9565 22.546 35.9824 24.52C34.0084 26.494 32.8994 29.1714 32.8994 31.9631V117.458H33.0281V147.481C33.028 148.64 33.325 149.78 33.8907 150.792C34.4564 151.804 35.272 152.654 36.2596 153.261C37.2472 153.868 38.3739 154.212 39.5322 154.26C40.6904 154.307 41.8416 154.057 42.8758 153.534L77.4833 135.99C78.4262 135.517 79.4665 135.271 80.5213 135.271C81.5761 135.271 82.6163 135.517 83.5592 135.99L119.231 153.662C120.266 154.175 121.415 154.415 122.568 154.36C123.722 154.304 124.842 153.955 125.823 153.346C126.804 152.736 127.613 151.886 128.174 150.876C128.734 149.866 129.028 148.73 129.026 147.575L128.933 117.458V31.9338C128.925 29.1553 127.819 26.4925 125.856 24.5261C123.893 22.5598 121.232 21.4493 118.453 21.437Z" fill="url(#paint1_linear_278_1443)"/>
<path d="M165.5 49.1264C165.503 51.4018 164.677 53.6005 163.178 55.3124C161.679 57.0244 159.609 58.1327 157.353 58.4308C156.941 58.4834 156.526 58.5104 156.11 58.5116H124.891C124.214 58.5101 123.538 58.4544 122.87 58.3449C120 57.8497 117.415 56.3106 115.612 54.0238C113.809 51.737 112.916 48.8642 113.104 45.9583C113.292 43.0523 114.549 40.3187 116.632 38.2836C118.715 36.2485 121.477 35.0557 124.386 34.9348C125.894 31.6605 128.426 28.9654 131.6 27.2559C134.773 25.5464 138.417 24.9153 141.981 25.4579C145.544 26.0004 148.835 27.6871 151.357 30.2636C153.878 32.84 155.493 36.1665 155.958 39.7412H156.1C157.333 39.7392 158.556 39.9805 159.696 40.4512C160.836 40.922 161.873 41.613 162.746 42.4847C163.619 43.3564 164.312 44.3917 164.784 45.5313C165.257 46.671 165.5 47.8926 165.5 49.1264Z" fill="url(#paint2_linear_278_1443)"/>
<path d="M6.75244 30.7446C6.75244 32.6212 7.4979 34.4209 8.82483 35.7478C10.1518 37.0747 11.9515 37.8202 13.828 37.8202H37.3189C39.6334 37.8079 41.8517 36.8925 43.5012 35.2688C45.1507 33.6451 46.1011 31.4416 46.1498 29.1275C46.1986 26.8135 45.3419 24.5719 43.7622 22.8801C42.1826 21.1884 40.0049 20.1803 37.6929 20.0706C36.5527 17.6146 34.6465 15.5947 32.2606 14.3141C29.8747 13.0336 27.1378 12.5615 24.4608 12.9687C21.7838 13.376 19.3111 14.6406 17.4139 16.5727C15.5168 18.5048 14.2975 21.0002 13.9392 23.6842H13.8331C11.9583 23.6829 10.1596 24.4256 8.83197 25.7494C7.50438 27.0732 6.75646 28.8698 6.75244 30.7446Z" fill="url(#paint3_linear_278_1443)"/>
<g filter="url(#filter0_f_278_1443)">
<ellipse cx="84.0474" cy="100.805" rx="33.8706" ry="7.25799" fill="#FF7C86" fill-opacity="0.39"/>
</g>
<path d="M83.7231 38.1968L92.0504 55.0678C92.2974 55.568 92.6623 56.0007 93.1135 56.3288C93.5648 56.6568 94.089 56.8702 94.641 56.9508L113.255 59.635C113.885 59.7315 114.476 60.0011 114.962 60.4138C115.448 60.8264 115.81 61.3659 116.008 61.9721C116.206 62.5783 116.231 63.2275 116.082 63.8474C115.932 64.4672 115.613 65.0334 115.161 65.4828L101.711 78.6112C101.311 79.0005 101.012 79.4814 100.84 80.0123C100.668 80.5432 100.627 81.108 100.723 81.658L103.904 100.196C104.013 100.829 103.942 101.481 103.7 102.077C103.458 102.673 103.054 103.189 102.534 103.567C102.013 103.945 101.398 104.169 100.756 104.215C100.115 104.261 99.4731 104.127 98.9041 103.827L82.2553 95.0553C81.761 94.7961 81.2111 94.6607 80.653 94.6607C80.0948 94.6607 79.545 94.7961 79.0507 95.0553L62.4019 103.827C61.8331 104.125 61.1922 104.258 60.5517 104.212C59.9113 104.165 59.2966 103.94 58.7772 103.562C58.2578 103.184 57.8543 102.669 57.6124 102.074C57.3704 101.479 57.2996 100.829 57.4078 100.196L60.5832 81.658C60.6786 81.108 60.6384 80.5432 60.4662 80.0123C60.294 79.4814 59.9949 79.0005 59.5949 78.6112L46.1449 65.4828C45.6926 65.0334 45.374 64.4672 45.2245 63.8474C45.0749 63.2275 45.1004 62.5783 45.298 61.9721C45.4957 61.3659 45.8577 60.8264 46.3438 60.4138C46.8299 60.0011 47.421 59.7315 48.0513 59.635L66.665 56.9333C67.217 56.8527 67.7412 56.6392 68.1924 56.3112C68.6437 55.9832 69.0085 55.5505 69.2555 55.0503L77.5829 38.1793C77.8726 37.6135 78.3133 37.139 78.8561 36.8082C79.3989 36.4774 80.0227 36.3033 80.6584 36.3051C81.294 36.3069 81.9168 36.4846 82.4577 36.8185C82.9986 37.1524 83.4366 37.6294 83.7231 38.1968Z" fill="url(#paint4_linear_278_1443)"/>
<path d="M0.500012 121.209C0.498892 123.475 1.32163 125.664 2.81492 127.369C4.30821 129.073 6.37021 130.176 8.6167 130.473C9.02531 130.53 9.43734 130.559 9.84987 130.559H40.9318C41.6091 130.558 42.2852 130.502 42.9534 130.392C45.8271 129.914 48.4206 128.385 50.2307 126.103C52.0408 123.82 52.9386 120.946 52.7497 118.039C52.5608 115.132 51.2987 112.399 49.2084 110.37C47.1181 108.341 44.3486 107.161 41.4372 107.058C39.9338 103.8 37.412 101.118 34.252 99.4176C31.092 97.717 27.4649 97.0894 23.9173 97.6294C20.3696 98.1695 17.0935 99.8479 14.5827 102.412C12.0718 104.976 10.4622 108.286 9.99644 111.844H9.84987C8.62076 111.844 7.4037 112.087 6.26833 112.557C5.13296 113.028 4.10157 113.718 3.23316 114.588C2.36474 115.458 1.67635 116.49 1.20737 117.627C0.73839 118.763 0.498019 119.98 0.500012 121.209Z" fill="url(#paint5_linear_278_1443)"/>
<path d="M140.753 70.511C140.438 69.2763 141.578 68.1638 142.805 68.5085L146.249 69.4765C147.476 69.8213 147.87 71.3646 146.958 72.2546L144.397 74.7538C143.485 75.6438 141.952 75.2129 141.637 73.9782L140.753 70.511Z" fill="#FFBEBD"/>
<path d="M16.5612 70.511C16.2464 69.2763 17.3863 68.1638 18.6129 68.5085L22.0576 69.4765C23.2843 69.8213 23.6778 71.3646 22.7659 72.2546L20.2053 74.7538C19.2934 75.6438 17.76 75.2129 17.4452 73.9782L16.5612 70.511Z" fill="#FFBEBD"/>
<path d="M57.3853 7.99867C57.8746 5.97173 60.7577 5.97173 61.247 7.99866L61.5404 9.21411C61.7153 9.93845 62.2808 10.504 63.0052 10.6789L64.2206 10.9723C66.2475 11.4615 66.2475 14.3446 64.2206 14.8339L63.0052 15.1273C62.2808 15.3022 61.7153 15.8677 61.5404 16.5921L61.247 17.8075C60.7577 19.8344 57.8746 19.8344 57.3853 17.8075L57.0919 16.5921C56.9171 15.8677 56.3515 15.3022 55.6272 15.1273L54.4118 14.8339C52.3848 14.3446 52.3848 11.4615 54.4117 10.9723L55.6272 10.6789C56.3515 10.504 56.9171 9.93845 57.0919 9.21411L57.3853 7.99867Z" fill="#FFBEBD"/>
<path d="M86.5695 147.31C86.5695 148.703 85.4404 149.832 84.0476 149.832C82.6547 149.832 81.5256 148.703 81.5256 147.31C81.5256 145.917 82.6547 144.788 84.0476 144.788C85.4404 144.788 86.5695 145.917 86.5695 147.31Z" stroke="#FFBEBD" stroke-width="2.48287"/>
<path d="M139.105 125.739C139.594 123.712 142.477 123.712 142.967 125.739L143.26 126.955C143.435 127.679 144.001 128.245 144.725 128.42L145.94 128.713C147.967 129.202 147.967 132.085 145.94 132.575L144.725 132.868C144.001 133.043 143.435 133.608 143.26 134.333L142.967 135.548C142.477 137.575 139.594 137.575 139.105 135.548L138.812 134.333C138.637 133.608 138.071 133.043 137.347 132.868L136.131 132.575C134.105 132.085 134.105 129.202 136.131 128.713L137.347 128.42C138.071 128.245 138.637 127.679 138.812 126.955L139.105 125.739Z" fill="#FFBEBD"/>
<circle cx="144.8" cy="104.3" r="2.52197" stroke="#FC9999" stroke-width="2.48287"/>
<defs>
<filter id="filter0_f_278_1443" x="29.4862" y="72.8568" width="109.122" height="55.8971" filterUnits="userSpaceOnUse" color-interpolation-filters="sRGB">
<feFlood flood-opacity="0" result="BackgroundImageFix"/>
<feBlend mode="normal" in="SourceGraphic" in2="BackgroundImageFix" result="shape"/>
<feGaussianBlur stdDeviation="10.3453" result="effect1_foregroundBlur_278_1443"/>
</filter>
<linearGradient id="paint0_linear_278_1443" x1="80.9322" y1="-12.5695" x2="82.4586" y2="249.1" gradientUnits="userSpaceOnUse">
<stop stop-color="#FFE1E1" stop-opacity="0"/>
<stop offset="1" stop-color="#FFE1E0"/>
</linearGradient>
<linearGradient id="paint1_linear_278_1443" x1="152.413" y1="161.214" x2="37.1683" y2="57.6648" gradientUnits="userSpaceOnUse">
<stop stop-color="#FF9999"/>
<stop offset="1" stop-color="#FFE7DA"/>
</linearGradient>
<linearGradient id="paint2_linear_278_1443" x1="155.552" y1="72.8487" x2="129.477" y2="25.2686" gradientUnits="userSpaceOnUse">
<stop stop-color="#FFBEBD"/>
<stop offset="1" stop-color="#FFF6F5"/>
</linearGradient>
<linearGradient id="paint3_linear_278_1443" x1="38.6749" y1="48.5995" x2="19.067" y2="12.8319" gradientUnits="userSpaceOnUse">
<stop stop-color="#FFBEBD"/>
<stop offset="1" stop-color="#FFF6F5"/>
</linearGradient>
<linearGradient id="paint4_linear_278_1443" x1="50.8608" y1="54.527" x2="178.086" y2="104.162" gradientUnits="userSpaceOnUse">
<stop stop-color="#FFDEAC"/>
<stop offset="0.70369" stop-color="#FF426F"/>
</linearGradient>
<linearGradient id="paint5_linear_278_1443" x1="42.8542" y1="144.842" x2="16.8908" y2="97.4197" gradientUnits="userSpaceOnUse">
<stop stop-color="#FFBEBD"/>
<stop offset="1" stop-color="#FFF6F5"/>
</linearGradient>
</defs>
</svg>
