<svg width="181" height="175" viewBox="0 0 181 175" fill="none" xmlns="http://www.w3.org/2000/svg">
<path d="M89.9165 167.083C132.198 167.083 166.474 132.807 166.474 90.5258C166.474 48.2443 132.198 13.9683 89.9165 13.9683C47.6349 13.9683 13.3589 48.2443 13.3589 90.5258C13.3589 132.807 47.6349 167.083 89.9165 167.083Z" fill="url(#paint0_linear_258_1077)"/>
<path d="M131.219 31.7829H46.4091C41.1228 31.7829 36.8374 36.0683 36.8374 41.3546H140.79C140.79 36.0683 136.505 31.7829 131.219 31.7829Z" fill="url(#paint1_linear_258_1077)"/>
<path d="M36.8374 41.093H140.79V120.265C140.79 123.785 139.392 127.161 136.903 129.65C134.414 132.139 131.038 133.538 127.518 133.538H50.1098C46.5897 133.538 43.2138 132.139 40.7248 129.65C38.2357 127.161 36.8374 123.785 36.8374 120.265V41.093Z" fill="url(#paint2_linear_258_1077)"/>
<path d="M122.922 51.0932H54.7399C53.32 51.0932 52.1689 52.2431 52.1689 53.6615C52.1689 55.0798 53.32 56.2297 54.7399 56.2297H122.922C124.342 56.2297 125.493 55.0798 125.493 53.6615C125.493 52.2431 124.342 51.0932 122.922 51.0932Z" fill="url(#paint3_linear_258_1077)"/>
<path d="M122.922 72.916H54.7399C53.32 72.916 52.1689 74.0658 52.1689 75.4842C52.1689 76.9026 53.32 78.0524 54.7399 78.0524H122.922C124.342 78.0524 125.493 76.9026 125.493 75.4842C125.493 74.0658 124.342 72.916 122.922 72.916Z" fill="url(#paint4_linear_258_1077)"/>
<path d="M122.922 94.7388H54.7399C53.32 94.7388 52.1689 95.8886 52.1689 97.307C52.1689 98.7254 53.32 99.8752 54.7399 99.8752H122.922C124.342 99.8752 125.493 98.7254 125.493 97.307C125.493 95.8886 124.342 94.7388 122.922 94.7388Z" fill="url(#paint5_linear_258_1077)"/>
<path d="M122.922 116.561H54.7399C53.32 116.561 52.1689 117.711 52.1689 119.13C52.1689 120.548 53.32 121.698 54.7399 121.698H122.922C124.342 121.698 125.493 120.548 125.493 119.13C125.493 117.711 124.342 116.561 122.922 116.561Z" fill="url(#paint6_linear_258_1077)"/>
<g filter="url(#filter0_d_258_1077)">
<path d="M54.2782 90.058H17.9725C15.0558 90.058 12.6914 92.4224 12.6914 95.3391V147.232C12.6914 150.149 15.0558 152.513 17.9725 152.513H54.2782C57.1949 152.513 59.5593 150.149 59.5593 147.232V95.3391C59.5593 92.4224 57.1949 90.058 54.2782 90.058Z" fill="url(#paint7_linear_258_1077)"/>
</g>
<g filter="url(#filter1_d_258_1077)">
<path d="M157.629 9H117.528C115.659 9 114.145 10.5148 114.145 12.3835V31.2319C114.145 33.1006 115.659 34.6154 117.528 34.6154H157.629C159.498 34.6154 161.012 33.1006 161.012 31.2319V12.3835C161.012 10.5148 159.498 9 157.629 9Z" fill="url(#paint8_linear_258_1077)"/>
</g>
<path d="M50.2269 116.018H22.0238C21.0741 116.018 20.3042 116.788 20.3042 117.738V117.744C20.3042 118.693 21.0741 119.463 22.0238 119.463H50.2269C51.1766 119.463 51.9464 118.693 51.9464 117.744V117.738C51.9464 116.788 51.1766 116.018 50.2269 116.018Z" fill="url(#paint9_linear_258_1077)"/>
<path d="M50.2427 140.257H22.2819C21.3404 140.257 20.5771 141.003 20.5771 141.923V141.928C20.5771 142.848 21.3404 143.594 22.2819 143.594H50.2427C51.1842 143.594 51.9475 142.848 51.9475 141.928V141.923C51.9475 141.003 51.1842 140.257 50.2427 140.257Z" fill="url(#paint10_linear_258_1077)"/>
<path d="M50.2427 127.575H22.2819C21.3404 127.575 20.5771 128.321 20.5771 129.241V129.247C20.5771 130.167 21.3404 130.913 22.2819 130.913H50.2427C51.1842 130.913 51.9475 130.167 51.9475 129.247V129.241C51.9475 128.321 51.1842 127.575 50.2427 127.575Z" fill="url(#paint11_linear_258_1077)"/>
<path d="M32.3358 98.0715H24.0941C22.2685 98.0715 20.7886 99.5514 20.7886 101.377V103.664C20.7886 105.49 22.2685 106.97 24.0941 106.97H32.3358C34.1614 106.97 35.6414 105.49 35.6414 103.664V101.377C35.6414 99.5514 34.1614 98.0715 32.3358 98.0715Z" fill="url(#paint12_linear_258_1077)"/>
<path d="M124.041 25.6949C126.19 25.6949 127.931 23.9533 127.931 21.805C127.931 19.6566 126.19 17.9151 124.041 17.9151C121.893 17.9151 120.151 19.6566 120.151 21.805C120.151 23.9533 121.893 25.6949 124.041 25.6949Z" fill="#81D5E7"/>
<path d="M137.942 25.6949C140.09 25.6949 141.832 23.9533 141.832 21.805C141.832 19.6566 140.09 17.9151 137.942 17.9151C135.794 17.9151 134.052 19.6566 134.052 21.805C134.052 23.9533 135.794 25.6949 137.942 25.6949Z" fill="#81D5E7"/>
<path d="M151.844 25.6949C153.992 25.6949 155.733 23.9533 155.733 21.805C155.733 19.6566 153.992 17.9151 151.844 17.9151C149.695 17.9151 147.954 19.6566 147.954 21.805C147.954 23.9533 149.695 25.6949 151.844 25.6949Z" fill="#81D5E7"/>
<path d="M141.297 118.473L131.445 129.335L159.214 154.523L169.066 143.662L141.297 118.473Z" fill="url(#paint13_linear_258_1077)"/>
<path fill-rule="evenodd" clip-rule="evenodd" d="M151.708 100.497C151.708 123.219 133.288 141.638 110.566 141.638C87.8445 141.638 69.4248 123.219 69.4248 100.497C69.4248 77.7748 87.8445 59.3551 110.566 59.3551C133.288 59.3551 151.708 77.7748 151.708 100.497ZM145.397 100.497C145.397 119.733 129.803 135.328 110.567 135.328C91.3299 135.328 75.7356 119.733 75.7356 100.497C75.7356 81.2602 91.3299 65.6658 110.567 65.6658C129.803 65.6658 145.397 81.2602 145.397 100.497Z" fill="url(#paint14_linear_258_1077)"/>
<g filter="url(#filter2_b_258_1077)">
<path d="M110.567 135.328C129.803 135.328 145.398 119.733 145.398 100.497C145.398 81.2601 129.803 65.6658 110.567 65.6658C91.3302 65.6658 75.7358 81.2601 75.7358 100.497C75.7358 119.733 91.3302 135.328 110.567 135.328Z" fill="url(#paint15_linear_258_1077)" fill-opacity="0.2"/>
</g>
<path d="M118.936 100.497L128.897 90.5132C129.831 89.5255 130.342 88.2129 130.323 86.8543C130.303 85.4956 129.755 84.198 128.794 83.2372C127.834 82.2763 126.536 81.7281 125.177 81.7088C123.819 81.6896 122.506 82.2009 121.518 83.1341L111.535 93.1176L101.574 83.1341C101.094 82.6268 100.518 82.2208 99.8791 81.94C99.2401 81.6593 98.5513 81.5096 97.8534 81.4997C97.1556 81.4898 96.4628 81.62 95.8161 81.8825C95.1694 82.145 94.582 82.5345 94.0884 83.0281C93.5949 83.5216 93.2054 84.109 92.9429 84.7557C92.6804 85.4024 92.5502 86.0952 92.5601 86.793C92.57 87.4909 92.7197 88.1797 93.0004 88.8187C93.2812 89.4577 93.6872 90.0339 94.1945 90.5132L104.172 100.497L94.1945 110.48C93.6872 110.96 93.2812 111.536 93.0004 112.175C92.7197 112.814 92.57 113.503 92.5601 114.2C92.5502 114.898 92.6804 115.591 92.9429 116.238C93.2054 116.884 93.5949 117.472 94.0884 117.965C94.582 118.459 95.1694 118.848 95.8161 119.111C96.4628 119.373 97.1556 119.504 97.8534 119.494C98.5513 119.484 99.2401 119.334 99.8791 119.053C100.518 118.773 101.094 118.367 101.574 117.859L111.557 107.876L121.541 117.859C122.538 118.737 123.832 119.202 125.16 119.159C126.488 119.116 127.749 118.569 128.687 117.628C129.625 116.687 130.169 115.424 130.208 114.096C130.247 112.768 129.779 111.475 128.897 110.48L118.936 100.497Z" fill="url(#paint16_linear_258_1077)"/>
<g filter="url(#filter3_f_258_1077)">
<ellipse cx="111.719" cy="119.735" rx="24.4857" ry="3.61721" fill="#EC5575" fill-opacity="0.56"/>
</g>
<path d="M82.7408 146.575C83.2584 144.431 86.308 144.431 86.8256 146.575L87.2089 148.163C87.3938 148.929 87.992 149.528 88.7582 149.713L90.3459 150.096C92.49 150.613 92.49 153.663 90.3459 154.181L88.7582 154.564C87.992 154.749 87.3938 155.347 87.2089 156.113L86.8256 157.701C86.308 159.845 83.2584 159.845 82.7408 157.701L82.3576 156.113C82.1726 155.347 81.5744 154.749 80.8082 154.564L79.2205 154.181C77.0765 153.663 77.0765 150.613 79.2205 150.096L80.8082 149.713C81.5744 149.528 82.1726 148.929 82.3576 148.163L82.7408 146.575Z" fill="url(#paint17_linear_258_1077)"/>
<path d="M27.3424 18.4243C27.86 16.2802 30.9096 16.2802 31.4272 18.4243L31.8104 20.012C31.9954 20.7782 32.5936 21.3764 33.3598 21.5613L34.9475 21.9446C37.0915 22.4622 37.0915 25.5118 34.9475 26.0294L33.3598 26.4126C32.5936 26.5976 31.9954 27.1958 31.8104 27.962L31.4272 29.5497C30.9096 31.6937 27.86 31.6937 27.3424 29.5497L26.9591 27.962C26.7742 27.1958 26.176 26.5976 25.4098 26.4126L23.8221 26.0294C21.678 25.5118 21.678 22.4622 23.8221 21.9446L25.4098 21.5613C26.176 21.3764 26.7742 20.7782 26.9591 20.012L27.3424 18.4243Z" fill="url(#paint18_linear_258_1077)"/>
<path fill-rule="evenodd" clip-rule="evenodd" d="M86.8641 16.3909C88.1549 16.3909 89.2013 15.3445 89.2013 14.0537C89.2013 12.7629 88.1549 11.7165 86.8641 11.7165C85.5733 11.7165 84.5269 12.7629 84.5269 14.0537C84.5269 15.3445 85.5733 16.3909 86.8641 16.3909ZM86.8641 18.1439C89.123 18.1439 90.9543 16.3126 90.9543 14.0537C90.9543 11.7948 89.123 9.96353 86.8641 9.96353C84.6052 9.96353 82.7739 11.7948 82.7739 14.0537C82.7739 16.3126 84.6052 18.1439 86.8641 18.1439Z" fill="url(#paint19_linear_258_1077)"/>
<path d="M159.79 81.7264C159.457 80.4203 160.662 79.2436 161.96 79.6082L165.864 80.7053C167.162 81.07 167.578 82.7025 166.613 83.6439L163.711 86.4765C162.747 87.4179 161.125 86.9621 160.792 85.656L159.79 81.7264Z" fill="url(#paint20_linear_258_1077)"/>
<path d="M21.5337 70.9619C22.8402 70.6306 24.0154 71.8378 23.649 73.1349L22.5469 77.0376C22.1806 78.3347 20.5475 78.7489 19.6073 77.7831L16.7785 74.8772C15.8384 73.9114 16.2963 72.2901 17.6027 71.9588L21.5337 70.9619Z" fill="url(#paint21_linear_258_1077)"/>
<path d="M132.999 151.724C134.305 151.393 135.48 152.6 135.114 153.897L134.012 157.8C133.645 159.097 132.012 159.511 131.072 158.545L128.243 155.639C127.303 154.673 127.761 153.052 129.068 152.721L132.999 151.724Z" fill="url(#paint22_linear_258_1077)"/>
<path fill-rule="evenodd" clip-rule="evenodd" d="M164.956 50.4311C166.247 50.4311 167.293 49.3847 167.293 48.0938C167.293 46.803 166.247 45.7566 164.956 45.7566C163.665 45.7566 162.619 46.803 162.619 48.0938C162.619 49.3847 163.665 50.4311 164.956 50.4311ZM164.956 52.184C167.215 52.184 169.046 50.3528 169.046 48.0938C169.046 45.8349 167.215 44.0037 164.956 44.0037C162.697 44.0037 160.866 45.8349 160.866 48.0938C160.866 50.3528 162.697 52.184 164.956 52.184Z" fill="url(#paint23_linear_258_1077)"/>
<path d="M159.212 154.524L169.064 143.663L170.548 145.009C171.987 146.315 172.849 148.139 172.944 150.081C173.038 152.022 172.358 153.922 171.052 155.361C169.746 156.801 167.922 157.663 165.98 157.758C164.039 157.852 162.139 157.172 160.7 155.866L159.216 154.52L159.212 154.524Z" fill="#65C8DE"/>
<defs>
<filter id="filter0_d_258_1077" x="0.691406" y="82.058" width="76.8682" height="92.4553" filterUnits="userSpaceOnUse" color-interpolation-filters="sRGB">
<feFlood flood-opacity="0" result="BackgroundImageFix"/>
<feColorMatrix in="SourceAlpha" type="matrix" values="0 0 0 0 0 0 0 0 0 0 0 0 0 0 0 0 0 0 127 0" result="hardAlpha"/>
<feOffset dx="3" dy="7"/>
<feGaussianBlur stdDeviation="7.5"/>
<feComposite in2="hardAlpha" operator="out"/>
<feColorMatrix type="matrix" values="0 0 0 0 0.104618 0 0 0 0 0.465612 0 0 0 0 0.545833 0 0 0 0.15 0"/>
<feBlend mode="normal" in2="BackgroundImageFix" result="effect1_dropShadow_258_1077"/>
<feBlend mode="normal" in="SourceGraphic" in2="effect1_dropShadow_258_1077" result="shape"/>
</filter>
<filter id="filter1_d_258_1077" x="107.145" y="0" width="72.8682" height="51.6154" filterUnits="userSpaceOnUse" color-interpolation-filters="sRGB">
<feFlood flood-opacity="0" result="BackgroundImageFix"/>
<feColorMatrix in="SourceAlpha" type="matrix" values="0 0 0 0 0 0 0 0 0 0 0 0 0 0 0 0 0 0 127 0" result="hardAlpha"/>
<feOffset dx="6" dy="4"/>
<feGaussianBlur stdDeviation="6.5"/>
<feComposite in2="hardAlpha" operator="out"/>
<feColorMatrix type="matrix" values="0 0 0 0 0.104618 0 0 0 0 0.465612 0 0 0 0 0.545833 0 0 0 0.09 0"/>
<feBlend mode="normal" in2="BackgroundImageFix" result="effect1_dropShadow_258_1077"/>
<feBlend mode="normal" in="SourceGraphic" in2="effect1_dropShadow_258_1077" result="shape"/>
</filter>
<filter id="filter2_b_258_1077" x="59.0607" y="48.9906" width="103.012" height="103.012" filterUnits="userSpaceOnUse" color-interpolation-filters="sRGB">
<feFlood flood-opacity="0" result="BackgroundImageFix"/>
<feGaussianBlur in="BackgroundImageFix" stdDeviation="8.33757"/>
<feComposite in2="SourceAlpha" operator="in" result="effect1_backgroundBlur_258_1077"/>
<feBlend mode="normal" in="SourceGraphic" in2="effect1_backgroundBlur_258_1077" result="shape"/>
</filter>
<filter id="filter3_f_258_1077" x="66.389" y="95.2735" width="90.6595" height="48.9223" filterUnits="userSpaceOnUse" color-interpolation-filters="sRGB">
<feFlood flood-opacity="0" result="BackgroundImageFix"/>
<feBlend mode="normal" in="SourceGraphic" in2="BackgroundImageFix" result="shape"/>
<feGaussianBlur stdDeviation="10.422" result="effect1_foregroundBlur_258_1077"/>
</filter>
<linearGradient id="paint0_linear_258_1077" x1="89.3263" y1="-10.9608" x2="90.8946" y2="257.898" gradientUnits="userSpaceOnUse">
<stop stop-color="white" stop-opacity="0"/>
<stop offset="1" stop-color="#8EE2F4"/>
</linearGradient>
<linearGradient id="paint1_linear_258_1077" x1="36.7197" y1="33.9919" x2="140.842" y2="41.3339" gradientUnits="userSpaceOnUse">
<stop stop-color="#90E3F5"/>
<stop offset="1" stop-color="#65C8DE"/>
</linearGradient>
<linearGradient id="paint2_linear_258_1077" x1="33.7161" y1="110.415" x2="183.893" y2="113.085" gradientUnits="userSpaceOnUse">
<stop stop-color="white"/>
<stop offset="1" stop-color="#BCF3FF"/>
</linearGradient>
<linearGradient id="paint3_linear_258_1077" x1="49.0678" y1="56.0178" x2="129.83" y2="56.0178" gradientUnits="userSpaceOnUse">
<stop stop-color="#65C8DE"/>
<stop offset="1" stop-color="#D2F7FF"/>
</linearGradient>
<linearGradient id="paint4_linear_258_1077" x1="49.0678" y1="77.8406" x2="129.83" y2="77.8406" gradientUnits="userSpaceOnUse">
<stop stop-color="#65C8DE"/>
<stop offset="1" stop-color="#D2F7FF"/>
</linearGradient>
<linearGradient id="paint5_linear_258_1077" x1="49.0678" y1="99.6634" x2="129.83" y2="99.6634" gradientUnits="userSpaceOnUse">
<stop stop-color="#65C8DE"/>
<stop offset="1" stop-color="#D2F7FF"/>
</linearGradient>
<linearGradient id="paint6_linear_258_1077" x1="49.0678" y1="121.486" x2="129.83" y2="121.486" gradientUnits="userSpaceOnUse">
<stop stop-color="#65C8DE"/>
<stop offset="1" stop-color="#D2F7FF"/>
</linearGradient>
<linearGradient id="paint7_linear_258_1077" x1="11.2842" y1="136.892" x2="101.114" y2="144.27" gradientUnits="userSpaceOnUse">
<stop stop-color="white"/>
<stop offset="1" stop-color="#BCF3FF"/>
</linearGradient>
<linearGradient id="paint8_linear_258_1077" x1="112.737" y1="28.2084" x2="180.41" y2="30.166" gradientUnits="userSpaceOnUse">
<stop stop-color="white"/>
<stop offset="1" stop-color="#BCF3FF"/>
</linearGradient>
<linearGradient id="paint9_linear_258_1077" x1="55.6186" y1="119.566" x2="17.5738" y2="119.566" gradientUnits="userSpaceOnUse">
<stop stop-color="#D2F7FF"/>
<stop offset="1" stop-color="#65C8DE"/>
</linearGradient>
<linearGradient id="paint10_linear_258_1077" x1="55.5881" y1="143.694" x2="17.8702" y2="143.694" gradientUnits="userSpaceOnUse">
<stop stop-color="#D2F7FF"/>
<stop offset="1" stop-color="#65C8DE"/>
</linearGradient>
<linearGradient id="paint11_linear_258_1077" x1="55.5881" y1="131.012" x2="17.8702" y2="131.012" gradientUnits="userSpaceOnUse">
<stop stop-color="#D2F7FF"/>
<stop offset="1" stop-color="#65C8DE"/>
</linearGradient>
<linearGradient id="paint12_linear_258_1077" x1="45.9407" y1="106.884" x2="18.9088" y2="106.884" gradientUnits="userSpaceOnUse">
<stop offset="0.243799" stop-color="#D2F7FF"/>
<stop offset="1" stop-color="#6BCBE0"/>
</linearGradient>
<linearGradient id="paint13_linear_258_1077" x1="137.842" y1="135.16" x2="147.787" y2="124.252" gradientUnits="userSpaceOnUse">
<stop stop-color="#90E3F5"/>
<stop offset="1" stop-color="#65C8DE"/>
</linearGradient>
<linearGradient id="paint14_linear_258_1077" x1="69.3316" y1="78.3449" x2="152.155" y2="78.8826" gradientUnits="userSpaceOnUse">
<stop stop-color="#90E3F5"/>
<stop offset="1" stop-color="#65C8DE"/>
</linearGradient>
<linearGradient id="paint15_linear_258_1077" x1="110.567" y1="65.6658" x2="145.665" y2="156.742" gradientUnits="userSpaceOnUse">
<stop stop-color="white"/>
<stop offset="1" stop-color="#D2F7FF"/>
</linearGradient>
<linearGradient id="paint16_linear_258_1077" x1="92.7401" y1="84.0555" x2="130.562" y2="119.391" gradientUnits="userSpaceOnUse">
<stop stop-color="#FF698D"/>
<stop offset="1" stop-color="#FF3868"/>
</linearGradient>
<linearGradient id="paint17_linear_258_1077" x1="70.728" y1="144.588" x2="98.9592" y2="144.771" gradientUnits="userSpaceOnUse">
<stop stop-color="#90E3F5"/>
<stop offset="1" stop-color="#65C8DE"/>
</linearGradient>
<linearGradient id="paint18_linear_258_1077" x1="15.3296" y1="16.4364" x2="43.5607" y2="16.6197" gradientUnits="userSpaceOnUse">
<stop stop-color="#90E3F5"/>
<stop offset="1" stop-color="#65C8DE"/>
</linearGradient>
<linearGradient id="paint19_linear_258_1077" x1="82.7647" y1="11.8514" x2="90.9988" y2="11.9049" gradientUnits="userSpaceOnUse">
<stop stop-color="#90E3F5"/>
<stop offset="1" stop-color="#65C8DE"/>
</linearGradient>
<linearGradient id="paint20_linear_258_1077" x1="156.733" y1="84.8083" x2="165.205" y2="76.647" gradientUnits="userSpaceOnUse">
<stop stop-color="#90E3F5"/>
<stop offset="1" stop-color="#65C8DE"/>
</linearGradient>
<linearGradient id="paint21_linear_258_1077" x1="18.4557" y1="67.9014" x2="26.6061" y2="76.3834" gradientUnits="userSpaceOnUse">
<stop stop-color="#90E3F5"/>
<stop offset="1" stop-color="#65C8DE"/>
</linearGradient>
<linearGradient id="paint22_linear_258_1077" x1="129.921" y1="148.663" x2="138.071" y2="157.145" gradientUnits="userSpaceOnUse">
<stop stop-color="#90E3F5"/>
<stop offset="1" stop-color="#65C8DE"/>
</linearGradient>
<linearGradient id="paint23_linear_258_1077" x1="160.856" y1="45.8916" x2="169.091" y2="45.945" gradientUnits="userSpaceOnUse">
<stop stop-color="#90E3F5"/>
<stop offset="1" stop-color="#65C8DE"/>
</linearGradient>
</defs>
</svg>
