<svg width="24" height="24" viewBox="0 0 24 24" fill="none" xmlns="http://www.w3.org/2000/svg">
<path d="M17.4487 3C19.0327 3 20.3152 4.305 20.3152 5.9115C20.3152 7.518 19.0336 8.8221 17.4487 8.8221C17.0431 8.82153 16.6422 8.73419 16.2731 8.56592C15.9039 8.39765 15.5751 8.15235 15.3085 7.8465L9.65293 10.9425C9.77893 11.2701 9.84733 11.6265 9.84733 12C9.84733 12.4878 9.73033 12.9468 9.52063 13.3509L14.9278 16.7034C15.1702 16.2444 15.5328 15.86 15.9769 15.5913C16.4209 15.3226 16.9297 15.1797 17.4487 15.1779C19.0327 15.1779 20.3152 16.4829 20.3152 18.0885C20.3152 19.6941 19.0336 21 17.4487 21C15.8647 21 14.5831 19.695 14.5831 18.0885L14.5858 17.9643L8.70883 14.3229C8.21381 14.7049 7.60609 14.9119 6.98083 14.9115C5.39773 14.9115 4.11523 13.6065 4.11523 12C4.11523 10.3935 5.39683 9.0885 6.98173 9.0885C7.74853 9.0885 8.44513 9.3945 8.95903 9.8922L14.7028 6.7485C14.6232 6.47664 14.5829 6.19478 14.5831 5.9115C14.5822 4.305 15.8647 3 17.4487 3ZM17.4487 16.4334C16.5559 16.4334 15.8287 17.1732 15.8287 18.0894C15.8287 19.0047 16.5559 19.7445 17.4487 19.7445C18.3424 19.7445 19.0687 19.0047 19.0687 18.0885C19.0687 17.1732 18.3424 16.4334 17.4487 16.4334ZM6.98173 10.3449C6.08803 10.3449 5.36173 11.0847 5.36173 12C5.36173 12.9153 6.08803 13.656 6.98173 13.656C7.87453 13.656 8.60173 12.9153 8.60173 12C8.60173 11.0847 7.87453 10.344 6.98173 10.344M17.4487 4.2546C16.5559 4.2546 15.8287 4.9944 15.8287 5.9106C15.8287 6.8259 16.5559 7.5657 17.4487 7.5657C18.3424 7.5657 19.0687 6.8259 19.0687 5.9097C19.0687 4.9944 18.3424 4.2546 17.4487 4.2546Z" fill="#5BF5FF"/>
</svg>
