<svg width="24" height="25" viewBox="0 0 24 25" fill="none" xmlns="http://www.w3.org/2000/svg">
<path fill-rule="evenodd" clip-rule="evenodd" d="M14.7366 3.26181H8.08465C6.00465 3.25384 4.30065 4.91084 4.25065 6.99084V17.7278C4.20565 19.8298 5.87365 21.5698 7.97465 21.6148C8.01165 21.6148 8.04865 21.6158 8.08465 21.6148H16.0726C18.1626 21.5408 19.8146 19.8188 19.8027 17.7278V8.53784L14.7366 3.26181Z" stroke="#5BF5FF" stroke-width="1.5" stroke-linecap="round" stroke-linejoin="round"/>
<path d="M14.4749 3.25012V6.15912C14.4749 7.57912 15.6239 8.73012 17.0439 8.73412H19.7979" stroke="#5BF5FF" stroke-width="1.5" stroke-linecap="round" stroke-linejoin="round"/>
<path d="M8.4375 16.875V16.125M8.4375 16.125V14.625H9.1875C9.38641 14.625 9.57718 14.704 9.71783 14.8447C9.85848 14.9853 9.9375 15.1761 9.9375 15.375C9.9375 15.5739 9.85848 15.7647 9.71783 15.9053C9.57718 16.046 9.38641 16.125 9.1875 16.125H8.4375ZM14.4375 16.875V15.9375M14.4375 15.9375V14.625H15.5625M14.4375 15.9375H15.5625M11.4375 16.875V14.625H11.8125C12.1109 14.625 12.397 14.7435 12.608 14.9545C12.819 15.1655 12.9375 15.4516 12.9375 15.75C12.9375 16.0484 12.819 16.3345 12.608 16.5455C12.397 16.7565 12.1109 16.875 11.8125 16.875H11.4375Z" stroke="#5BF5FF" stroke-width="0.75" stroke-linecap="round" stroke-linejoin="round"/>
</svg>
