<svg width="24" height="25" viewBox="0 0 24 25" fill="none" xmlns="http://www.w3.org/2000/svg">
<g clip-path="url(#clip0_172_431)">
<path d="M17.815 3.5C19.575 3.5 21 4.95 21 6.735C21 8.52 19.576 9.969 17.815 9.969C17.3642 9.96837 16.9188 9.87132 16.5087 9.68435C16.0985 9.49739 15.7331 9.22484 15.437 8.885L9.153 12.325C9.293 12.689 9.369 13.085 9.369 13.5C9.369 14.042 9.239 14.552 9.006 15.001L15.014 18.726C15.2833 18.216 15.6862 17.7889 16.1796 17.4903C16.673 17.1918 17.2383 17.033 17.815 17.031C19.575 17.031 21 18.481 21 20.265C21 22.049 19.576 23.5 17.815 23.5C16.055 23.5 14.631 22.05 14.631 20.265L14.634 20.127L8.104 16.081C7.55397 16.5054 6.87873 16.7354 6.184 16.735C4.425 16.735 3 15.285 3 13.5C3 11.715 4.424 10.265 6.185 10.265C7.037 10.265 7.811 10.605 8.382 11.158L14.764 7.665C14.6755 7.36293 14.6308 7.04976 14.631 6.735C14.63 4.95 16.055 3.5 17.815 3.5ZM17.815 18.426C16.823 18.426 16.015 19.248 16.015 20.266C16.015 21.283 16.823 22.105 17.815 22.105C18.808 22.105 19.615 21.283 19.615 20.265C19.615 19.248 18.808 18.426 17.815 18.426ZM6.185 11.661C5.192 11.661 4.385 12.483 4.385 13.5C4.385 14.517 5.192 15.34 6.185 15.34C7.177 15.34 7.985 14.517 7.985 13.5C7.985 12.483 7.177 11.66 6.185 11.66M17.815 4.894C16.823 4.894 16.015 5.716 16.015 6.734C16.015 7.751 16.823 8.573 17.815 8.573C18.808 8.573 19.615 7.751 19.615 6.733C19.615 5.716 18.808 4.894 17.815 4.894Z" fill="#181818"/>
</g>
<defs>
<clipPath id="clip0_172_431">
<rect width="20" height="20" fill="white" transform="translate(2 3.5)"/>
</clipPath>
</defs>
</svg>
