<svg width="34" height="35" viewBox="0 0 34 35" fill="none" xmlns="http://www.w3.org/2000/svg">
<path d="M25.6064 2.70151L31.5181 8.86401V32.2985H9.43408V32.375H31.5936V8.94157L25.6064 2.70151Z" fill="#909090"/>
<path d="M25.5328 2.625H9.3584V32.2985H31.5179V8.86506L25.5328 2.625Z" fill="#F4F4F4"/>
<path d="M9.19611 4.21875H2.40674V11.4724H23.763V4.21875H9.19611Z" fill="#7A7B7C"/>
<path d="M23.8767 11.3492H2.54492V4.09018H23.8767V11.3492Z" fill="#DD2025"/>
<path d="M9.61769 5.31737H8.229V10.4174H9.32125V8.69718L9.56244 8.71099C9.79688 8.70776 10.0292 8.66576 10.2499 8.58668C10.4439 8.5208 10.6222 8.41553 10.7737 8.27749C10.929 8.14727 11.051 7.98191 11.1296 7.79512C11.2372 7.48562 11.2753 7.15624 11.2412 6.83037C11.2351 6.59752 11.1943 6.36689 11.1201 6.14612C11.0532 5.98654 10.9537 5.84268 10.828 5.72376C10.7023 5.60484 10.5532 5.51347 10.3901 5.45549C10.2496 5.40344 10.1039 5.3664 9.95557 5.34499C9.84351 5.32674 9.73016 5.3175 9.61663 5.31737M9.41582 7.75474H9.32125V6.18224H9.52632C9.61682 6.17571 9.70763 6.18961 9.79205 6.22289C9.87646 6.25618 9.95231 6.30801 10.014 6.37455C10.1418 6.54563 10.2101 6.75387 10.2084 6.96743C10.2084 7.2288 10.2084 7.46574 9.97257 7.63255C9.80268 7.72613 9.60922 7.76928 9.41582 7.75474ZM13.3163 5.30355C13.1983 5.30355 13.0836 5.31205 13.0028 5.31524L12.7499 5.32162H11.9212V10.4216H12.8966C13.2693 10.4312 13.6403 10.368 13.9888 10.2357C14.2694 10.1249 14.5178 9.9455 14.7113 9.71399C14.9009 9.48147 15.0363 9.2096 15.1076 8.91818C15.1914 8.58872 15.2321 8.24979 15.2288 7.90987C15.2496 7.50841 15.2185 7.10594 15.1363 6.71243C15.0577 6.4231 14.9121 6.15632 14.7113 5.93362C14.5538 5.75353 14.3601 5.60871 14.1429 5.50862C13.9568 5.42234 13.7609 5.35884 13.5596 5.31949C13.4795 5.30637 13.3984 5.30032 13.3173 5.30143M13.1239 9.48449H13.0177V6.22899H13.0315C13.2506 6.20366 13.4722 6.24319 13.669 6.34268C13.8131 6.45778 13.9306 6.60278 14.0133 6.76768C14.1025 6.94122 14.1539 7.1317 14.1641 7.32655C14.1737 7.5603 14.1641 7.75155 14.1641 7.90987C14.1681 8.09222 14.1563 8.27458 14.1291 8.45493C14.0956 8.63987 14.0351 8.81888 13.9495 8.98618C13.8528 9.1422 13.7206 9.27324 13.5638 9.36868C13.4328 9.45368 13.2775 9.49326 13.1218 9.4813M18.5193 5.32162H15.9374V10.4216H17.0297V8.39862H18.4109V7.45087H17.0297V6.26937H18.5172V5.32162" fill="#464648"/>
<path d="M23.1422 22.0209C23.1422 22.0209 26.5295 21.4068 26.5295 22.5639C26.5295 23.721 24.431 23.2503 23.1422 22.0209ZM20.6379 22.1091C20.0997 22.2277 19.5752 22.4019 19.0729 22.6287L19.4979 21.6724C19.9229 20.7162 20.3638 19.4125 20.3638 19.4125C20.8697 20.2669 21.4598 21.0685 22.1254 21.8053C21.6243 21.8799 21.1278 21.9821 20.6379 22.1113V22.1091ZM19.297 15.2029C19.297 14.1946 19.6232 13.9194 19.8772 13.9194C20.1311 13.9194 20.4169 14.0416 20.4265 14.9171C20.3436 15.7974 20.1593 16.6652 19.8772 17.5032C19.4894 16.8001 19.2892 16.009 19.296 15.2061L19.297 15.2029ZM14.3575 26.3761C13.3184 25.7546 16.5367 23.841 17.12 23.7794C17.1168 23.7804 15.4455 27.0264 14.3575 26.3761ZM27.5187 22.701C27.508 22.5947 27.4124 21.4185 25.3193 21.4684C24.4468 21.4532 23.5747 21.5147 22.713 21.6523C21.8777 20.8115 21.1588 19.8628 20.5752 18.8313C20.9426 17.7681 21.1653 16.6602 21.2372 15.5376C21.2064 14.2626 20.9014 13.5316 19.9239 13.5422C18.9464 13.5528 18.804 14.4081 18.9326 15.681C19.0584 16.5364 19.296 17.3716 19.6392 18.1651C19.6392 18.1651 19.1876 19.5708 18.5905 20.9691C17.9934 22.3673 17.5854 23.1004 17.5854 23.1004C16.5468 23.4381 15.5693 23.9403 14.69 24.5879C13.8145 25.4029 13.4586 26.0287 13.9197 26.6545C14.3171 27.1943 15.7079 27.3164 16.951 25.6876C17.6104 24.8455 18.2138 23.961 18.7573 23.0399C18.7573 23.0399 20.6528 22.5203 21.2425 22.3779C21.8322 22.2356 22.5451 22.1229 22.5451 22.1229C22.5451 22.1229 24.2759 23.8644 25.9451 23.8028C27.6143 23.7411 27.5335 22.8051 27.5229 22.7031" fill="#DD2025"/>
<path d="M25.4512 2.70682V8.94688H31.4362L25.4512 2.70682Z" fill="#909090"/>
<path d="M25.5327 2.625V8.86506H31.5178L25.5327 2.625Z" fill="#F4F4F4"/>
<path d="M9.53615 5.23555H8.14746V10.3355H9.24396V8.61642L9.48621 8.63024C9.72065 8.62701 9.95293 8.585 10.1736 8.50592C10.3677 8.44004 10.546 8.33478 10.6975 8.19674C10.8516 8.06616 10.9725 7.90083 11.0502 7.71436C11.1578 7.40487 11.1959 7.07548 11.1618 6.74961C11.1557 6.51677 11.1149 6.28614 11.0406 6.06536C10.9737 5.90578 10.8743 5.76193 10.7486 5.64301C10.6229 5.52408 10.4737 5.43271 10.3107 5.37474C10.1695 5.32217 10.0231 5.28477 9.87402 5.26317C9.76196 5.24492 9.64862 5.23569 9.53509 5.23555M9.33427 7.67292H9.23971V6.10042H9.44584C9.53634 6.0939 9.62715 6.10779 9.71157 6.14108C9.79598 6.17436 9.87183 6.22619 9.93352 6.29274C10.0614 6.46381 10.1297 6.67205 10.128 6.88561C10.128 7.14699 10.128 7.38392 9.89209 7.55074C9.7222 7.64431 9.52874 7.6864 9.33534 7.67186M13.2347 5.22174C13.1168 5.22174 13.002 5.23024 12.9213 5.23342L12.6716 5.2398H11.8428V10.3398H12.8182C13.1909 10.3494 13.5619 10.2862 13.9105 10.1539C14.1911 10.043 14.4395 9.86368 14.633 9.63217C14.8226 9.39965 14.9579 9.12779 15.0293 8.83636C15.1131 8.50691 15.1538 8.16798 15.1504 7.82805C15.1712 7.42659 15.1401 7.02412 15.058 6.63061C14.9793 6.34128 14.8337 6.0745 14.633 5.8518C14.4755 5.67172 14.2818 5.52689 14.0645 5.4268C13.8784 5.34052 13.6825 5.27702 13.4812 5.23767C13.4011 5.22455 13.3201 5.21851 13.239 5.21961M13.0456 9.40267H12.9393V6.14717H12.9531C13.1722 6.12184 13.3939 6.16137 13.5906 6.26086C13.7348 6.37596 13.8522 6.52096 13.9349 6.68586C14.0241 6.8594 14.0755 7.04988 14.0858 7.24474C14.0953 7.47849 14.0858 7.66974 14.0858 7.82805C14.0897 8.0104 14.078 8.19276 14.0507 8.37311C14.0173 8.55806 13.9568 8.73706 13.8711 8.90436C13.7744 9.06038 13.6423 9.19142 13.4855 9.28686C13.3545 9.37187 13.1992 9.41144 13.0435 9.39949M18.4378 5.2398H15.8559V10.3398H16.9481V8.3168H18.3294V7.36905H16.9481V6.18755H18.4356V5.2398" fill="white"/>
</svg>
