<svg width="16" height="17" viewBox="0 0 16 17" fill="none" xmlns="http://www.w3.org/2000/svg">
<path d="M5.81989 0.812134C2.82999 0.812134 0.397461 3.24457 0.397461 6.23454V10.7655C0.397461 13.7554 2.82999 16.1879 5.81989 16.1879H10.3508C13.3407 16.1879 15.7732 13.7554 15.7732 10.7655V8.75452L13.3605 10.187V10.7655C13.3605 12.425 12.0103 13.7751 10.3508 13.7751H5.81989C4.16035 13.7751 2.81022 12.425 2.81022 10.7655V6.23454C2.81022 4.57498 4.16035 3.22485 5.81989 3.22485H10.3508C11.4421 3.22485 12.4588 3.83255 12.9856 4.78432L8.01601 7.79649L6.63246 5.5139L6.09996 5.83665C6.10032 5.83726 6.10073 5.83776 6.10108 5.83837C6.25976 6.10437 6.16637 6.45236 5.89261 6.61567C5.62067 6.77781 5.27328 6.6965 5.11313 6.43484L4.56916 6.76454L7.20325 11.1104L15.7653 5.92079L15.7572 5.81485C15.7041 5.1218 15.5203 4.45787 15.2138 3.83773L15.2174 3.8356L15.0548 3.53008L15.0521 3.53165C14.0842 1.84953 12.2995 0.812134 10.3508 0.812134H5.81989Z" fill="#375DFB"/>
</svg>
